<svg width="23" height="13" viewBox="0 0 23 13" fill="none" xmlns="http://www.w3.org/2000/svg">
<path fill-rule="evenodd" clip-rule="evenodd" d="M7.55751 0.145352C7.87377 -0.0938181 8.32403 -0.031326 8.5632 0.284932C8.80237 0.601191 8.73988 1.05145 8.42362 1.29063L2.85803 5.49961H22.2698C22.6664 5.49961 22.9878 5.82104 22.9878 6.21756C22.9878 6.61407 22.6664 6.9355 22.2698 6.9355H2.85688L8.42362 11.1454C8.73988 11.3845 8.80237 11.8348 8.5632 12.151C8.32403 12.4673 7.87377 12.5298 7.55751 12.2906L0.284782 6.79063C0.105345 6.65493 -0.000110626 6.44296 -0.000110626 6.21799C-0.000110626 5.99302 0.105345 5.78105 0.284782 5.64535L7.55751 0.145352Z" fill="#568CD6"/>
</svg>
